<svg xmlns="http://www.w3.org/2000/svg" version="1.1" xmlns:xlink="http://www.w3.org/1999/xlink" xmlns:svgjs="http://svgjs.dev/svgjs" viewBox="0 0 800 400"><path d="M118.10034942626953,301.4336853027344C116.7562624613444,296.9533996582031,111.97728602091472,284.25925699869794,110.03582763671875,274.5519714355469C108.09436925252278,264.8446858723958,105.85422643025716,252.74791717529297,106.45159912109375,243.18997192382812C107.04897181193034,233.63202667236328,108.84108988444011,224.22341664632162,113.62006378173828,217.2042999267578C118.39903767903645,210.185183207194,127.50895563761394,204.3608144124349,135.1254425048828,201.0752716064453C142.7419293721517,197.78972880045572,151.85184224446616,197.64038594563803,159.31898498535156,197.4910430908203C166.78612772623697,197.3417002360026,173.20786794026694,198.8351287841797,179.9282989501953,200.17921447753906C186.6487299601237,201.52330017089844,193.0704828898112,203.31541442871094,199.64157104492188,205.55555725097656C206.21265920003256,207.7957000732422,212.3357137044271,211.97730000813803,219.35482788085938,213.6200714111328C226.37394205729166,215.2628428141276,234.28911336263022,215.56152852376303,241.75625610351562,215.4121856689453C249.22339884440103,215.2628428141276,257.2879130045573,215.4121856689453,264.1576843261719,212.72401428222656C271.02745564778644,210.0358428955078,277.5985361735026,205.25687154134116,282.9748840332031,199.2831573486328C288.3512318929036,193.30944315592447,294.47430928548175,184.79690297444662,296.415771484375,176.88172912597656C298.35723368326825,168.9665552775065,295.8184000651042,160.30466079711914,294.6236572265625,151.7921142578125C293.4289143880208,143.27956771850586,291.0394287109375,133.2735939025879,289.247314453125,125.80644989013672C287.4552001953125,118.33930587768555,285.5137481689453,113.85902277628581,283.8709716796875,106.98925018310547C282.2281951904297,100.11947758992513,279.5400034586589,91.90561612447102,279.3906555175781,84.58781433105469C279.2413075764974,77.27001253763835,278.64393615722656,69.05615488688152,282.9748840332031,63.08243942260742C287.3058319091797,57.108723958333336,297.1624806722005,52.1804084777832,305.3763427734375,48.745521545410156C313.5902048746745,45.31063461303711,324.04419962565106,44.11588986714681,332.258056640625,42.47311782836914C340.47191365559894,40.83034578959147,350.92591349283856,39.486260732014976,354.65948486328125,38.88888931274414" fill="none" stroke-width="5" stroke="#f7ceb7" stroke-linecap="round" transform="matrix(-0.48913626218287,1.6972937345640362,-3.206100339032304,2.289242751447983,1058.3031915401111,-580.7775164148471)"></path><defs><linearGradient id="SvgjsLinearGradient1002"><stop stop-color="hsl(37, 99%, 67%)" offset="0"></stop><stop stop-color="hsl(316, 73%, 52%)" offset="1"></stop></linearGradient></defs></svg>